<svg width="48" height="48" viewBox="0 0 48 48" fill="none" xmlns="http://www.w3.org/2000/svg">
<path d="M41 14.5557L24 24.0002M24 24.0002L6.99994 14.5557M24 24.0002V43.0002M28 41.778L25.554 43.1368C24.9868 43.452 24.7032 43.6094 24.403 43.6712C24.137 43.726 23.863 43.726 23.5972 43.6712C23.2968 43.6094 23.0132 43.452 22.446 43.1368L7.64594 34.9146C7.04692 34.5818 6.74736 34.4154 6.52926 34.1786C6.33632 33.9694 6.1903 33.7212 6.10096 33.4508C6 33.1452 6 32.8026 6 32.1172V15.8831C6 15.1978 6 14.8551 6.10096 14.5495C6.1903 14.2792 6.33632 14.031 6.52926 13.8216C6.74736 13.585 7.0469 13.4186 7.64594 13.0858L22.446 4.86354C23.0132 4.54842 23.2968 4.39086 23.5972 4.32908C23.863 4.27442 24.137 4.27442 24.403 4.32908C24.7032 4.39086 24.9868 4.54842 25.554 4.86354L40.354 13.0858C40.9532 13.4186 41.2526 13.585 41.4708 13.8216C41.6636 14.031 41.8098 14.2792 41.899 14.5495C42 14.8551 42 15.1978 42 15.8831V25.0002M15 9.00016L33 19.0002M38 42.0002V30.0002M32 36.0002H44" stroke="#CA8416" stroke-width="3" stroke-linecap="round" stroke-linejoin="round"/>
</svg>
