<svg width="48" height="48" viewBox="0 0 48 48" fill="none" xmlns="http://www.w3.org/2000/svg">
<path d="M24 0C10.7353 0 0 10.7341 0 24C0 37.2647 10.7341 48 24 48C37.2647 48 48 37.2659 48 24C48 10.7353 37.2659 0 24 0ZM24 44.8C12.5309 44.8 3.19997 35.4692 3.19997 24C3.19997 12.5308 12.5309 3.19997 24 3.19997C35.4691 3.19997 44.8 12.5309 44.8 24C44.8 35.4691 35.4691 44.8 24 44.8Z" fill="#CA8416"/>
<path d="M35.2287 14.7173C32.9706 14.7173 31.1334 16.5545 31.1334 18.8126C31.1334 19.5881 31.3502 20.3138 31.7261 20.9326L28.6507 25.195C28.0549 25.0597 27.4439 25.0567 26.8352 25.195L23.7599 20.9326C24.1359 20.3138 24.3525 19.588 24.3525 18.8126C24.3525 16.5545 22.5154 14.7173 20.2572 14.7173C17.9991 14.7173 16.1619 16.5545 16.1619 18.8126C16.1619 19.5881 16.3787 20.3138 16.7546 20.9326L13.6793 25.195C11.1032 24.6097 8.67628 26.58 8.67628 29.1876C8.67628 31.4457 10.5134 33.2828 12.7716 33.2828C15.0297 33.2828 16.8668 31.4457 16.8668 29.1876C16.8668 28.4121 16.6501 27.6863 16.2743 27.0676L19.3496 22.8052C19.9455 22.9405 20.5565 22.9435 21.1652 22.8052L24.2405 27.0676C23.8644 27.6863 23.6479 28.4122 23.6479 29.1876C23.6479 31.4457 25.485 33.2828 27.7432 33.2828C30.0013 33.2828 31.8384 31.4457 31.8384 29.1876C31.8384 28.4121 31.6217 27.6863 31.2458 27.0676L34.3211 22.8052C36.8972 23.3905 39.3241 21.4202 39.3241 18.8126C39.3239 16.5544 37.4867 14.7173 35.2287 14.7173ZM12.7713 30.0827C12.2776 30.0827 11.8761 29.6811 11.8761 29.1875C11.8761 28.6939 12.2777 28.2922 12.7713 28.2922C13.2649 28.2922 13.6665 28.6939 13.6665 29.1875C13.6665 29.6811 13.265 30.0827 12.7713 30.0827ZM20.2572 19.7078C19.7635 19.7078 19.362 19.3062 19.362 18.8126C19.362 18.319 19.7636 17.9174 20.2572 17.9174C20.7508 17.9174 21.1524 18.319 21.1524 18.8126C21.1524 19.3062 20.7508 19.7078 20.2572 19.7078ZM27.7428 30.0827C27.2491 30.0827 26.8476 29.6811 26.8476 29.1875C26.8476 28.6939 27.2492 28.2922 27.7428 28.2922C28.2364 28.2922 28.638 28.6939 28.638 29.1875C28.638 29.6811 28.2365 30.0827 27.7428 30.0827ZM35.2287 19.7078C34.735 19.7078 34.3335 19.3061 34.3335 18.8125C34.3335 18.3189 34.7351 17.9173 35.2287 17.9173C35.7223 17.9173 36.1239 18.3189 36.1239 18.8125C36.1239 19.3061 35.7222 19.7078 35.2287 19.7078Z" fill="#CA8416"/>
</svg>
