<svg width="25" height="24" viewBox="0 0 25 24" fill="none" xmlns="http://www.w3.org/2000/svg">
<path d="M9.875 4.875C9.875 4.57663 9.99353 4.29048 10.2045 4.0795C10.4155 3.86853 10.7016 3.75 11 3.75H14C14.2984 3.75 14.5845 3.86853 14.7955 4.0795C15.0065 4.29048 15.125 4.57663 15.125 4.875C15.125 5.17337 15.0065 5.45952 14.7955 5.6705C14.5845 5.88147 14.2984 6 14 6H11C10.7016 6 10.4155 5.88147 10.2045 5.6705C9.99353 5.45952 9.875 5.17337 9.875 4.875Z" fill="#CA8416"/>
<path fill-rule="evenodd" clip-rule="evenodd" d="M5.375 0C4.47989 0 3.62145 0.355579 2.98851 0.988515C2.35558 1.62145 2 2.47989 2 3.375V17.625C2 18.5201 2.35558 19.3785 2.98851 20.0115C3.62145 20.6444 4.47989 21 5.375 21H7.88L7.7075 22.3695C7.68472 22.5508 7.70966 22.735 7.77987 22.9037C7.85008 23.0725 7.96312 23.22 8.10781 23.3316C8.2525 23.4433 8.42383 23.5153 8.60487 23.5404C8.7859 23.5656 8.97035 23.543 9.14 23.475L12.5 22.131L15.86 23.475C16.0296 23.543 16.2141 23.5656 16.3951 23.5404C16.5762 23.5153 16.7475 23.4433 16.8922 23.3316C17.0369 23.22 17.1499 23.0725 17.2201 22.9037C17.2903 22.735 17.3153 22.5508 17.2925 22.3695L17.12 21H19.6235C20.0668 21.0002 20.5059 20.913 20.9155 20.7435C21.3252 20.574 21.6974 20.3254 22.011 20.012C22.3245 19.6986 22.5732 19.3265 22.7429 18.9169C22.9127 18.5073 23 18.0683 23 17.625V3.375C23 2.47989 22.6444 1.62145 22.0115 0.988515C21.3785 0.355579 20.5201 0 19.625 0L5.375 0ZM16.8395 18.75H19.625C19.9234 18.75 20.2095 18.6315 20.4205 18.4205C20.6315 18.2095 20.75 17.9234 20.75 17.625V3.375C20.75 3.07663 20.6315 2.79048 20.4205 2.5795C20.2095 2.36853 19.9234 2.25 19.625 2.25H5.375C5.07663 2.25 4.79048 2.36853 4.5795 2.5795C4.36853 2.79048 4.25 3.07663 4.25 3.375V17.625C4.25 18.246 4.754 18.75 5.375 18.75H8.1605L8.4185 16.683C7.82238 15.9186 7.45293 15.0022 7.35224 14.0381C7.25155 13.074 7.42367 12.101 7.84899 11.2299C8.2743 10.3589 8.93572 9.62478 9.75788 9.11128C10.58 8.59779 11.5299 8.32553 12.4992 8.32553C13.4686 8.32553 14.4185 8.59779 15.2406 9.11128C16.0628 9.62478 16.7242 10.3589 17.1495 11.2299C17.5748 12.101 17.7469 13.074 17.6463 14.0381C17.5456 15.0022 17.1761 15.9186 16.58 16.683L16.8395 18.75ZM14.6555 18.207C13.9985 18.507 13.2695 18.675 12.5 18.675C11.7305 18.675 11 18.507 10.3445 18.207L10.013 20.8635L12.11 20.025C12.3604 19.9248 12.6396 19.9248 12.89 20.025L14.987 20.865L14.6555 18.207ZM9.425 13.5C9.425 12.6845 9.74897 11.9023 10.3256 11.3256C10.9023 10.749 11.6845 10.425 12.5 10.425C13.3155 10.425 14.0977 10.749 14.6744 11.3256C15.251 11.9023 15.575 12.6845 15.575 13.5C15.575 14.3155 15.251 15.0977 14.6744 15.6744C14.0977 16.251 13.3155 16.575 12.5 16.575C11.6845 16.575 10.9023 16.251 10.3256 15.6744C9.74897 15.0977 9.425 14.3155 9.425 13.5Z" fill="#CA8416"/>
</svg>
