<svg width="48" height="48" viewBox="0 0 48 48" fill="none" xmlns="http://www.w3.org/2000/svg">
<path d="M39.8399 38.56L39.1999 30.56C38.5599 23.36 34.7199 18.56 28.7999 14.56L30.3999 4.95996H22.3999L21.1199 6.55996H17.5999L18.5599 11.68L25.5999 12.64C26.2399 12.8 26.5599 13.28 26.5599 13.76C26.5599 14.24 26.0799 14.72 25.4399 14.72L19.0399 14.56C13.1199 18.56 9.2799 23.36 8.7999 30.56L8.1599 38.56C7.1999 38.88 6.3999 39.68 6.3999 40.8C6.3999 42.08 7.5199 43.2 8.7999 43.2H39.1999C40.4799 43.2 41.5999 42.08 41.5999 40.8C41.5999 39.68 40.7999 38.88 39.8399 38.56ZM18.2399 28.16L21.7599 27.68L23.3599 24.48C23.6799 24 24.3199 24 24.6399 24.48L26.2399 27.68L29.7599 28.16C30.3999 28.32 30.5599 28.96 30.2399 29.44L27.6799 32L28.3199 35.52C28.4799 36.16 27.8399 36.64 27.1999 36.32L23.9999 34.72L20.7999 36.32C20.3199 36.64 19.6799 36.16 19.6799 35.52L20.3199 32L17.7599 29.44C17.4399 28.96 17.5999 28.32 18.2399 28.16Z" fill="#CA8416"/>
</svg>
