<svg width="48" height="48" viewBox="0 0 48 48" fill="none" xmlns="http://www.w3.org/2000/svg">
<g clip-path="url(#clip0_41_726)">
<path d="M47.846 1.236C47.6439 0.745969 47.2539 0.355969 46.764 0.154031C46.52 0.054 46.26 0 46 0H34C32.896 0 32.0001 0.894 32.0001 1.99997C32.0001 3.10594 32.896 3.99994 34 3.99994H41.172L25.172 20H0V48H28V22.828L44 6.828V14C44 15.1059 44.8959 15.9999 45.9999 15.9999C47.1039 15.9999 48 15.106 48 14V1.99997C48 1.74 47.948 1.48003 47.846 1.236Z" fill="#CA8416"/>
</g>
<defs>
<clipPath id="clip0_41_726">
<rect width="48" height="48" fill="white"/>
</clipPath>
</defs>
</svg>
