<svg width="48" height="48" viewBox="0 0 48 48" fill="none" xmlns="http://www.w3.org/2000/svg">
<path d="M23.9993 0C10.7642 0 0 10.7664 0 23.9993C0 37.2341 10.7642 48 23.9993 48C37.2325 48 47.9986 37.234 47.9986 23.9993C47.9984 10.7664 37.2325 0 23.9993 0ZM23.9993 43.5452C13.2203 43.5452 4.4501 34.7779 4.4501 23.9993C4.4501 13.2185 13.2203 4.45082 23.9993 4.45082C34.7794 4.45082 43.5459 13.2185 43.5459 23.9993C43.5459 34.7779 34.7794 43.5452 23.9993 43.5452Z" fill="#CA8416"/>
<path d="M38.8834 16.1017C37.7563 16.2795 36.254 16.5832 36.2361 16.9443C36.205 17.5223 36.2679 18.3882 36.2361 18.9661C36.205 19.5437 36.8271 20.8436 36.2268 21.1315C35.6272 21.4205 34.9885 21.9983 34.2974 21.1315C33.6061 20.2656 33.0283 18.7613 33.0283 18.7613C33.0283 18.7613 33.3168 16.0779 32.3059 15.934C31.2958 15.789 30.5735 16.078 29.9956 15.934C29.4183 15.789 29.5625 14.0565 29.4183 15.789C29.274 17.5217 28.8411 18.5138 28.2638 18.3072C27.6866 18.1001 26.5315 18.0994 25.5206 17.5218C24.5098 16.9438 24.3659 14.6927 23.2103 15.0245C22.0554 15.3561 21.3328 14.9917 21.3328 14.9917C21.3328 14.9917 20.7548 16.0781 21.3328 17.3775C21.9104 18.6773 23.9321 20.4097 25.6649 20.554C27.3974 20.698 27.3973 21.1815 26.8193 21.5891C26.242 21.9977 23.6431 22.7197 23.2094 23.8028C22.7765 24.885 22.6315 24.3082 22.3433 26.1844C22.0547 28.0619 20.8209 31.0944 21.077 31.671C21.3328 32.2483 20.6109 33.2591 19.456 33.2591C18.3012 33.2591 17.7662 34.1249 17.023 33.2591C16.2799 32.3932 16.2799 29.7936 15.7019 28.4949C15.1239 27.1947 14.445 26.6174 13.5579 25.6059C12.6697 24.5957 11.6184 22.863 11.6184 22.863C11.6184 22.863 10.3651 20.5133 9.06057 19.9755C8.06169 19.5638 7.74735 19.7767 7.65219 19.9007C7.31238 21.2352 7.11279 22.6249 7.11279 24.0636C7.11279 33.3747 14.6875 40.9493 23.9991 40.9493C33.3101 40.9493 40.8855 33.3747 40.8855 24.0636C40.8856 21.1863 40.1575 18.4755 38.8834 16.1017ZM27.5408 31.0943C27.3965 32.6824 24.22 31.0943 24.22 31.0943C24.22 31.0943 24.22 31.0943 23.9991 29.3619C23.7784 27.6288 24.7976 27.3403 26.0963 26.6187L27.5407 28.3503C27.5407 28.3503 27.6853 29.5057 27.5408 31.0943Z" fill="#CA8416"/>
</svg>
