<svg width="48" height="48" viewBox="0 0 48 48" fill="none" xmlns="http://www.w3.org/2000/svg">
<path d="M6 24H42M14 24V28M34 24V28M16 14H15.6C12.2397 14 10.5595 14 9.27606 14.654C8.14708 15.2292 7.2292 16.1471 6.65396 17.2761C6 18.5595 6 20.2396 6 23.6V32.4C6 35.7604 6 37.4404 6.65396 38.724C7.2292 39.853 8.14708 40.7708 9.27606 41.346C10.5595 42 12.2397 42 15.6 42H32.4C35.7604 42 37.4404 42 38.724 41.346C39.853 40.7708 40.7708 39.853 41.346 38.724C42 37.4404 42 35.7604 42 32.4V23.6C42 20.2396 42 18.5595 41.346 17.2761C40.7708 16.1471 39.853 15.2292 38.724 14.654C37.4404 14 35.7604 14 32.4 14H32M16 14V12C16 10.1362 16 9.20436 16.3045 8.46926C16.7105 7.48916 17.4892 6.71046 18.4693 6.30448C19.2044 6 20.1362 6 22 6H26C27.8638 6 28.7956 6 29.5308 6.30448C30.5108 6.71046 31.2896 7.48916 31.6956 8.46926C32 9.20436 32 10.1362 32 12V14M16 14H32" stroke="#CA8416" stroke-width="3" stroke-linecap="round" stroke-linejoin="round"/>
</svg>
