<svg width="48" height="48" viewBox="0 0 48 48" fill="none" xmlns="http://www.w3.org/2000/svg">
<path d="M0.566462 39.3354C0.520874 39.7974 0.663124 40.2583 0.961179 40.6144L6.59228 47.3406C6.93415 47.749 7.42448 47.9597 7.91836 47.9597C8.30977 47.9597 8.70336 47.8273 9.02691 47.5566C9.75882 46.9438 9.8554 45.8538 9.24267 45.1218L4.74327 39.7475L7.35283 37.6497L11.8964 43.0768C12.2382 43.4852 12.7286 43.6958 13.2225 43.6958C13.6139 43.6958 14.0075 43.5634 14.3311 43.2927C15.063 42.68 15.1596 41.5899 14.5468 40.8581L10.0474 35.4835L26.088 22.5887L30.7697 28.181C31.6699 29.2563 32.9908 29.8731 34.3936 29.8731C35.466 29.8731 36.5171 29.5029 37.3534 28.8306L45.6764 22.1399C46.1791 21.7358 46.5871 21.2427 46.8889 20.6745C47.1793 20.1278 47.3574 19.5379 47.4183 18.9211C47.4791 18.3043 47.4197 17.6909 47.2418 17.098C47.0568 16.4817 46.753 15.9185 46.339 15.4239L34.8771 1.73236C33.9769 0.65705 32.6561 0.0402832 31.2533 0.0402832C30.1808 0.0402832 29.1297 0.410553 28.2934 1.08275L19.9704 7.77351C19.4677 8.17758 19.0598 8.67066 18.7578 9.23893C18.4675 9.78558 18.2893 10.3756 18.2285 10.9923C18.1676 11.6092 18.227 12.2226 18.405 12.8154C18.5899 13.4317 18.8937 13.995 19.3077 14.4895L23.8687 19.9376L1.20356 38.158C0.841683 38.4489 0.611969 38.8731 0.566462 39.3354ZM21.9582 12.2707C21.5021 11.7259 21.5823 10.9128 22.1361 10.4676L30.459 3.77687C30.6931 3.58863 30.974 3.49697 31.2532 3.49697C31.616 3.49697 31.9761 3.65189 32.2266 3.95123L43.6887 17.6426C44.1448 18.1874 44.0646 19.0005 43.5108 19.4458L35.1879 26.1365C34.9538 26.3247 34.6728 26.4164 34.3937 26.4164C34.0308 26.4164 33.6708 26.2615 33.4203 25.9621L21.9582 12.2707Z" fill="#CA8416"/>
<path d="M7.91847 48C7.39312 48 6.89851 47.7692 6.56149 47.3665L0.930385 40.6403C0.627327 40.2783 0.480075 39.8012 0.526469 39.3314C0.572783 38.8615 0.810404 38.4224 1.17842 38.1265L23.8115 19.932L19.2769 14.5154C18.8594 14.0167 18.553 13.4486 18.3665 12.827C18.1869 12.229 18.1271 11.6104 18.1885 10.9884C18.2498 10.3663 18.4294 9.77136 18.7224 9.21995C19.0268 8.64684 19.4383 8.14957 19.9453 7.74202L28.2682 1.05134C29.1116 0.373336 30.1719 0 31.2534 0C32.6681 0 34.0003 0.622011 34.9081 1.70652L46.3703 15.3979C46.7879 15.8968 47.0942 16.4649 47.2806 17.0864C47.4601 17.6844 47.52 18.303 47.4587 18.9251C47.3972 19.5471 47.2176 20.1421 46.9248 20.6934C46.6203 21.2666 46.2089 21.7639 45.702 22.1713L37.3789 28.8621C36.5356 29.54 35.4754 29.9134 34.3938 29.9134C32.9792 29.9134 31.647 29.2914 30.739 28.207L26.0827 22.645L10.1049 35.4891L14.5779 40.8321C14.8811 41.1943 15.0252 41.653 14.9835 42.1236C14.9418 42.5942 14.7194 43.0204 14.3571 43.3237C14.0393 43.5897 13.6363 43.7361 13.2226 43.7361C12.6971 43.7361 12.2025 43.5053 11.8656 43.1027L7.34745 37.7059L4.80083 39.7532L9.27376 45.0959C9.89972 45.8439 9.80072 46.9616 9.05292 47.5876C8.73502 47.8536 8.33207 48 7.91847 48ZM31.2534 0.0806864C30.1901 0.0806864 29.1479 0.447729 28.3188 1.11428L19.9958 7.80495C19.4974 8.20564 19.0929 8.69444 18.7935 9.25787C18.5057 9.79992 18.329 10.3848 18.2688 10.9963C18.2084 11.6079 18.2673 12.216 18.4438 12.8039C18.6272 13.4149 18.9283 13.9734 19.3388 14.4638L23.9262 19.9435L23.8942 19.9692L1.22892 38.1895C0.877616 38.4718 0.650807 38.8909 0.606671 39.3394C0.562455 39.7878 0.70293 40.2431 0.992191 40.5885L6.62329 47.3147C6.94499 47.699 7.417 47.9193 7.91847 47.9193C8.31319 47.9193 8.69766 47.7795 9.00112 47.5256C9.71479 46.9282 9.80928 45.8614 9.21187 45.1477L4.68609 39.7418L7.35859 37.5934L11.9275 43.0509C12.2491 43.4351 12.7211 43.6554 13.2226 43.6554C13.6174 43.6554 14.0019 43.5156 14.3053 43.2617C14.651 42.9723 14.8633 42.5656 14.9031 42.1165C14.9429 41.6674 14.8055 41.2297 14.516 40.884L9.99017 35.4778L10.0223 35.4521L26.0937 22.5326L26.1191 22.5629L30.8008 28.1552C31.6934 29.2214 33.003 29.8328 34.3937 29.8328C35.457 29.8328 36.4991 29.4658 37.3282 28.7992L45.6512 22.1085C46.1496 21.7079 46.554 21.2191 46.8534 20.6556C47.1412 20.1136 47.3178 19.5287 47.3781 18.9172C47.4385 18.3056 47.3797 17.6975 47.2032 17.1096C47.0199 16.4987 46.7188 15.9403 46.3082 15.4498L34.8463 1.75832C33.9538 0.692128 32.6442 0.0806864 31.2534 0.0806864ZM34.3938 26.4567C34.0048 26.4567 33.6387 26.2859 33.3894 25.988L21.9274 12.2966C21.6998 12.0248 21.5936 11.6807 21.6284 11.3279C21.6632 10.975 21.8345 10.6583 22.1109 10.4362L30.4338 3.74546C30.6656 3.55924 30.9566 3.45668 31.2533 3.45668C31.6422 3.45668 32.0083 3.62758 32.2577 3.92547L43.7198 17.6168C43.9474 17.8887 44.0536 18.2329 44.0188 18.5857C43.9839 18.9385 43.8125 19.2552 43.5363 19.4773L35.2133 26.168C34.9815 26.3542 34.6905 26.4567 34.3938 26.4567ZM31.2533 3.53737C30.9749 3.53737 30.7018 3.63363 30.4844 3.80832L22.1616 10.4991C21.9022 10.7075 21.7413 11.0047 21.7087 11.3358C21.6761 11.6668 21.7757 11.9898 21.9893 12.2449L33.4514 25.9362C33.6853 26.2158 34.0287 26.3761 34.3938 26.3761C34.6723 26.3761 34.9453 26.28 35.1627 26.1052L43.4857 19.4144C43.745 19.206 43.9058 18.9089 43.9385 18.5778C43.9712 18.2467 43.8715 17.9238 43.6579 17.6686L32.1958 3.97719C31.9619 3.6977 31.6183 3.53737 31.2533 3.53737Z" fill="#CA8416"/>
</svg>
