<svg width="48" height="48" viewBox="0 0 48 48" fill="none" xmlns="http://www.w3.org/2000/svg">
<path fill-rule="evenodd" clip-rule="evenodd" d="M26 4C26 2.89544 25.1046 2 24 2C22.8954 2 22 2.89544 22 4V8C22 9.10456 22.8954 10 24 10C25.1046 10 26 9.10456 26 8V4ZM15.7321 5.67944C15.1798 4.72286 13.9566 4.3951 13 4.9474C12.0434 5.49968 11.7157 6.72286 12.2679 7.67944L14.2666 11.1413C14.8189 12.0979 16.0421 12.4256 16.9987 11.8733C17.9553 11.321 18.283 10.0979 17.7307 9.14128L15.7321 5.67944ZM35.732 7.67954C36.2844 6.72296 35.9566 5.49978 35 4.9475C34.0434 4.3952 32.8202 4.72296 32.268 5.67954L30.2694 9.1413C29.717 10.0979 30.0448 11.3211 31.0014 11.8733C31.958 12.4256 33.1812 12.0979 33.7334 11.1413L35.732 7.67954ZM42.3204 15.7321C43.277 15.1798 43.6048 13.9566 43.0526 13C42.5002 12.0434 41.277 11.7157 40.3204 12.2679L36.8588 14.2666C35.9022 14.8189 35.5744 16.0421 36.1266 16.9986C36.679 17.9552 37.9022 18.283 38.8588 17.7307L42.3204 15.7321ZM7.67944 12.2679C6.72286 11.7157 5.49968 12.0434 4.9474 13C4.3951 13.9566 4.72286 15.1798 5.67944 15.7321L9.14128 17.7307C10.0979 18.283 11.321 17.9553 11.8733 16.9987C12.4256 16.0421 12.0979 14.8189 11.1413 14.2666L7.67944 12.2679ZM4 22C2.89544 22 2 22.8954 2 24C2 25.1046 2.89544 26 4 26H8C9.10456 26 10 25.1046 10 24C10 22.8954 9.10456 22 8 22H4ZM40 22C38.8954 22 38 22.8954 38 24C38 25.1046 38.8954 26 40 26H44C45.1046 26 46 25.1046 46 24C46 22.8954 45.1046 22 44 22H40ZM11.1413 33.7334C12.0979 33.181 12.4256 31.9578 11.8733 31.0014C11.321 30.0448 10.0979 29.717 9.14128 30.2692L5.67944 32.268C4.72286 32.8202 4.3951 34.0434 4.9474 35C5.49968 35.9566 6.72286 36.2844 7.67944 35.732L11.1413 33.7334ZM38.8586 30.2694C37.9022 29.717 36.679 30.0448 36.1266 31.0014C35.5744 31.958 35.9022 33.1812 36.8586 33.7334L40.3204 35.732C41.277 36.2844 42.5002 35.9566 43.0526 35C43.6048 34.0434 43.277 32.8202 42.3204 32.268L38.8586 30.2694ZM33.7334 36.8586C33.1812 35.9022 31.958 35.5744 31.0014 36.1266C30.0448 36.679 29.717 37.9022 30.2694 38.8586L32.268 42.3204C32.8202 43.277 34.0434 43.6048 35 43.0526C35.9566 42.5002 36.2844 41.277 35.732 40.3204L33.7334 36.8586ZM17.7307 38.8588C18.283 37.9022 17.9553 36.679 16.9987 36.1266C16.0421 35.5744 14.8189 35.9022 14.2666 36.8588L12.2679 40.3206C11.7157 41.2772 12.0434 42.5004 13 43.0526C13.9566 43.6048 15.1798 43.2772 15.7321 42.3206L17.7307 38.8588ZM26 40C26 38.8954 25.1046 38 24 38C22.8954 38 22 38.8954 22 40V44C22 45.1046 22.8954 46 24 46C25.1046 46 26 45.1046 26 44V40ZM16 24C16 19.5817 19.5817 16 24 16C28.4182 16 32 19.5817 32 24C32 28.4182 28.4182 32 24 32C19.5817 32 16 28.4182 16 24ZM24 12C17.3726 12 12 17.3726 12 24C12 30.6274 17.3726 36 24 36C30.6274 36 36 30.6274 36 24C36 17.3726 30.6274 12 24 12Z" fill="#CA8416"/>
</svg>
