<svg width="48" height="48" viewBox="0 0 48 48" fill="none" xmlns="http://www.w3.org/2000/svg">
<path d="M8 10C8 10.5304 8.21071 11.0391 8.58579 11.4142C8.96086 11.7893 9.46957 12 10 12H42C42.5304 12 43.0391 12.2107 43.4142 12.5858C43.7893 12.9609 44 13.4696 44 14V42C44 42.5304 43.7893 43.0391 43.4142 43.4142C43.0391 43.7893 42.5304 44 42 44H32C31.4696 44 30.9609 43.7893 30.5858 43.4142C30.2107 43.0391 30 42.5304 30 42C30 41.4696 30.2107 40.9609 30.5858 40.5858C30.9609 40.2107 31.4696 40 32 40H40V16H10C9.31712 15.9934 8.64051 15.8689 8 15.632V38C8 38.5304 8.21071 39.0391 8.58579 39.4142C8.96086 39.7893 9.46957 40 10 40H20C20.5304 40 21.0391 39.7893 21.4142 39.4142C21.7893 39.0391 22 38.5304 22 38V28.828L19.414 31.414C19.0368 31.7783 18.5316 31.9799 18.0072 31.9753C17.4828 31.9708 16.9812 31.7605 16.6104 31.3896C16.2395 31.0188 16.0292 30.5172 16.0247 29.9928C16.0201 29.4684 16.2217 28.9632 16.586 28.586L22.586 22.586C22.7723 22.3994 22.9939 22.2518 23.238 22.152C23.7273 21.9498 24.2767 21.9498 24.766 22.152C25.0101 22.2518 25.2317 22.3994 25.418 22.586L31.418 28.586C31.7823 28.9632 31.9839 29.4684 31.9793 29.9928C31.9748 30.5172 31.7645 31.0188 31.3936 31.3896C31.0228 31.7605 30.5212 31.9708 29.9968 31.9753C29.4724 31.9799 28.9672 31.7783 28.59 31.414L26 28.828V38C26 39.5913 25.3679 41.1174 24.2426 42.2426C23.1174 43.3679 21.5913 44 20 44H10C8.4087 44 6.88258 43.3679 5.75736 42.2426C4.63214 41.1174 4 39.5913 4 38V10C4 8.4087 4.63214 6.88258 5.75736 5.75736C6.88258 4.63214 8.4087 4 10 4H42C42.5304 4 43.0391 4.21071 43.4142 4.58579C43.7893 4.96086 44 5.46957 44 6C44 6.53043 43.7893 7.03914 43.4142 7.41421C43.0391 7.78929 42.5304 8 42 8H10C9.46957 8 8.96086 8.21071 8.58579 8.58579C8.21071 8.96086 8 9.46957 8 10Z" fill="#CA8416"/>
</svg>
