<svg width="25" height="24" viewBox="0 0 25 24" fill="none" xmlns="http://www.w3.org/2000/svg">
<g clip-path="url(#clip0_41_572)">
<path d="M12.5 2C10.3783 2 8.34344 2.84285 6.84315 4.34315C5.34285 5.84344 4.5 7.87827 4.5 10V11.9C4.19833 12.1628 3.9539 12.4849 3.78188 12.8461C3.60986 13.2074 3.51391 13.6001 3.5 14C3.52278 14.5798 3.72019 15.1393 4.06636 15.605C4.41254 16.0708 4.89133 16.421 5.44 16.61C6.74 19.72 9.35 22 12.5 22H15.5V20H12.5C10.24 20 8.19 18.3 7.16 15.61L6.95 15.06L6.36 15C6.11972 14.966 5.89999 14.8459 5.74177 14.6619C5.58354 14.4779 5.49761 14.2427 5.5 14C5.50105 13.8255 5.54776 13.6543 5.63547 13.5034C5.72319 13.3525 5.84886 13.2273 6 13.14L6.5 12.85V11C6.5 10.7348 6.60536 10.4804 6.79289 10.2929C6.98043 10.1054 7.23478 10 7.5 10H17.5C17.7652 10 18.0196 10.1054 18.2071 10.2929C18.3946 10.4804 18.5 10.7348 18.5 11V16H14.41C14.3192 15.7454 14.1613 15.5201 13.9531 15.3479C13.7448 15.1756 13.4938 15.0629 13.2267 15.0215C12.9596 14.9801 12.6863 15.0117 12.4357 15.1129C12.1851 15.214 11.9664 15.381 11.8029 15.5962C11.6394 15.8114 11.537 16.0668 11.5066 16.3353C11.4763 16.6039 11.519 16.8757 11.6304 17.1219C11.7418 17.3682 11.9176 17.5798 12.1393 17.7343C12.3611 17.8889 12.6204 17.9807 12.89 18H20.5C21.0304 18 21.5391 17.7893 21.9142 17.4142C22.2893 17.0391 22.5 16.5304 22.5 16V14C22.5 13.4696 22.2893 12.9609 21.9142 12.5858C21.5391 12.2107 21.0304 12 20.5 12V10C20.5 7.87827 19.6571 5.84344 18.1569 4.34315C16.6566 2.84285 14.6217 2 12.5 2Z" fill="#CA8416"/>
</g>
<defs>
<clipPath id="clip0_41_572">
<rect width="24" height="24" fill="white" transform="translate(0.5)"/>
</clipPath>
</defs>
</svg>
