<svg width="432" height="48" viewBox="0 0 432 48" fill="none" xmlns="http://www.w3.org/2000/svg">
<path fill-rule="evenodd" clip-rule="evenodd" d="M6.85437 23.5C6.85437 14.3068 14.307 6.85417 23.5002 6.85417C32.6934 6.85417 40.146 14.3068 40.146 23.5C40.146 32.6932 32.6934 40.1458 23.5002 40.1458C20.2254 40.1458 17.1772 39.2023 14.6054 37.5728C14.1267 37.2696 13.5402 37.1886 12.9973 37.3505L7.35898 39.0333L9.48189 34.0658C9.73281 33.4787 9.68175 32.8062 9.34508 32.2637C7.76633 29.7197 6.85437 26.7193 6.85437 23.5ZM23.5002 2.9375C12.1439 2.9375 2.9377 12.1436 2.9377 23.5C2.9377 27.0996 3.86427 30.4879 5.49261 33.434L2.11609 41.3345C1.81759 42.0331 1.9499 42.8411 2.45556 43.4078C2.96122 43.9748 3.74904 44.198 4.4769 43.9806L13.2883 41.3512C16.2983 43.0765 19.7866 44.0625 23.5002 44.0625C34.8565 44.0625 44.0627 34.8564 44.0627 23.5C44.0627 12.1436 34.8565 2.9375 23.5002 2.9375ZM27.9896 27.7739L25.416 29.5867C24.2107 28.9001 22.878 27.9417 21.5412 26.6049C20.1516 25.2153 19.1214 23.7806 18.3617 22.4646L19.9973 21.0764C20.6992 20.4806 20.8913 19.4763 20.4589 18.6635L18.3749 14.7468C18.0943 14.2194 17.5883 13.8489 17.0008 13.7407C16.4132 13.6325 15.8084 13.7984 15.3583 14.1912L14.7405 14.7305C13.2546 16.0273 12.3759 18.1583 13.1042 20.3159C13.8593 22.5528 15.4707 26.0732 18.7718 29.3744C22.3234 32.926 25.931 34.3247 28.0408 34.8679C29.7406 35.3054 31.3492 34.7189 32.4826 33.7954L33.641 32.8514C34.1365 32.4478 34.4038 31.8276 34.3572 31.1902C34.3104 30.5527 33.9555 29.9782 33.4064 29.6509L30.1197 27.6926C29.4559 27.2972 28.6216 27.3289 27.9896 27.7739Z" fill="white"/>
<path d="M58.365 23.35C58.365 20.672 58.963 18.28 60.159 16.174C61.381 14.042 63.032 12.391 65.112 11.221C67.218 10.025 69.571 9.427 72.171 9.427C75.213 9.427 77.878 10.207 80.166 11.767C82.454 13.327 84.053 15.485 84.963 18.241H78.684C78.06 16.941 77.176 15.966 76.032 15.316C74.914 14.666 73.614 14.341 72.132 14.341C70.546 14.341 69.129 14.718 67.881 15.472C66.659 16.2 65.697 17.24 64.995 18.592C64.319 19.944 63.981 21.53 63.981 23.35C63.981 25.144 64.319 26.73 64.995 28.108C65.697 29.46 66.659 30.513 67.881 31.267C69.129 31.995 70.546 32.359 72.132 32.359C73.614 32.359 74.914 32.034 76.032 31.384C77.176 30.708 78.06 29.72 78.684 28.42H84.963C84.053 31.202 82.454 33.373 80.166 34.933C77.904 36.467 75.239 37.234 72.171 37.234C69.571 37.234 67.218 36.649 65.112 35.479C63.032 34.283 61.381 32.632 60.159 30.526C58.963 28.42 58.365 26.028 58.365 23.35ZM101.795 15.082C103.433 15.082 104.889 15.446 106.163 16.174C107.437 16.876 108.425 17.929 109.127 19.333C109.855 20.711 110.219 22.375 110.219 24.325V37H104.759V25.066C104.759 23.35 104.33 22.037 103.472 21.127C102.614 20.191 101.444 19.723 99.9615 19.723C98.4535 19.723 97.2575 20.191 96.3735 21.127C95.5155 22.037 95.0865 23.35 95.0865 25.066V37H89.6265V8.14H95.0865V18.085C95.7885 17.149 96.7245 16.421 97.8945 15.901C99.0645 15.355 100.365 15.082 101.795 15.082ZM114.007 26.119C114.007 23.935 114.436 21.998 115.294 20.308C116.178 18.618 117.361 17.318 118.843 16.408C120.351 15.498 122.028 15.043 123.874 15.043C125.486 15.043 126.89 15.368 128.086 16.018C129.308 16.668 130.283 17.487 131.011 18.475V15.394H136.51V37H131.011V33.841C130.309 34.855 129.334 35.7 128.086 36.376C126.864 37.026 125.447 37.351 123.835 37.351C122.015 37.351 120.351 36.883 118.843 35.947C117.361 35.011 116.178 33.698 115.294 32.008C114.436 30.292 114.007 28.329 114.007 26.119ZM131.011 26.197C131.011 24.871 130.751 23.74 130.231 22.804C129.711 21.842 129.009 21.114 128.125 20.62C127.241 20.1 126.292 19.84 125.278 19.84C124.264 19.84 123.328 20.087 122.47 20.581C121.612 21.075 120.91 21.803 120.364 22.765C119.844 23.701 119.584 24.819 119.584 26.119C119.584 27.419 119.844 28.563 120.364 29.551C120.91 30.513 121.612 31.254 122.47 31.774C123.354 32.294 124.29 32.554 125.278 32.554C126.292 32.554 127.241 32.307 128.125 31.813C129.009 31.293 129.711 30.565 130.231 29.629C130.751 28.667 131.011 27.523 131.011 26.197ZM148.199 19.879V30.331C148.199 31.059 148.368 31.592 148.706 31.93C149.07 32.242 149.668 32.398 150.5 32.398H153.035V37H149.603C145.001 37 142.7 34.764 142.7 30.292V19.879H140.126V15.394H142.7V10.051H148.199V15.394H153.035V19.879H148.199ZM175.849 37.351C173.769 37.351 171.897 36.896 170.233 35.986C168.569 35.05 167.256 33.737 166.294 32.047C165.358 30.357 164.89 28.407 164.89 26.197C164.89 23.987 165.371 22.037 166.333 20.347C167.321 18.657 168.66 17.357 170.35 16.447C172.04 15.511 173.925 15.043 176.005 15.043C178.085 15.043 179.97 15.511 181.66 16.447C183.35 17.357 184.676 18.657 185.638 20.347C186.626 22.037 187.12 23.987 187.12 26.197C187.12 28.407 186.613 30.357 185.599 32.047C184.611 33.737 183.259 35.05 181.543 35.986C179.853 36.896 177.955 37.351 175.849 37.351ZM175.849 32.593C176.837 32.593 177.76 32.359 178.618 31.891C179.502 31.397 180.204 30.669 180.724 29.707C181.244 28.745 181.504 27.575 181.504 26.197C181.504 24.143 180.958 22.57 179.866 21.478C178.8 20.36 177.487 19.801 175.927 19.801C174.367 19.801 173.054 20.36 171.988 21.478C170.948 22.57 170.428 24.143 170.428 26.197C170.428 28.251 170.935 29.837 171.949 30.955C172.989 32.047 174.289 32.593 175.849 32.593ZM203.099 15.082C205.673 15.082 207.753 15.901 209.339 17.539C210.925 19.151 211.718 21.413 211.718 24.325V37H206.258V25.066C206.258 23.35 205.829 22.037 204.971 21.127C204.113 20.191 202.943 19.723 201.461 19.723C199.953 19.723 198.757 20.191 197.873 21.127C197.015 22.037 196.586 23.35 196.586 25.066V37H191.126V15.394H196.586V18.085C197.314 17.149 198.237 16.421 199.355 15.901C200.499 15.355 201.747 15.082 203.099 15.082ZM262.59 9.778L254.985 37H248.55L243.441 17.617L238.098 37L231.702 37.039L224.37 9.778H230.22L235.017 30.916L240.555 9.778H246.639L251.865 30.799L256.701 9.778H262.59ZM278.323 15.082C279.961 15.082 281.417 15.446 282.691 16.174C283.965 16.876 284.953 17.929 285.655 19.333C286.383 20.711 286.747 22.375 286.747 24.325V37H281.287V25.066C281.287 23.35 280.858 22.037 280 21.127C279.142 20.191 277.972 19.723 276.49 19.723C274.982 19.723 273.786 20.191 272.902 21.127C272.044 22.037 271.615 23.35 271.615 25.066V37H266.155V8.14H271.615V18.085C272.317 17.149 273.253 16.421 274.423 15.901C275.593 15.355 276.893 15.082 278.323 15.082ZM290.535 26.119C290.535 23.935 290.964 21.998 291.822 20.308C292.706 18.618 293.889 17.318 295.371 16.408C296.879 15.498 298.556 15.043 300.402 15.043C302.014 15.043 303.418 15.368 304.614 16.018C305.836 16.668 306.811 17.487 307.539 18.475V15.394H313.038V37H307.539V33.841C306.837 34.855 305.862 35.7 304.614 36.376C303.392 37.026 301.975 37.351 300.363 37.351C298.543 37.351 296.879 36.883 295.371 35.947C293.889 35.011 292.706 33.698 291.822 32.008C290.964 30.292 290.535 28.329 290.535 26.119ZM307.539 26.197C307.539 24.871 307.279 23.74 306.759 22.804C306.239 21.842 305.537 21.114 304.653 20.62C303.769 20.1 302.82 19.84 301.806 19.84C300.792 19.84 299.856 20.087 298.998 20.581C298.14 21.075 297.438 21.803 296.892 22.765C296.372 23.701 296.112 24.819 296.112 26.119C296.112 27.419 296.372 28.563 296.892 29.551C297.438 30.513 298.14 31.254 298.998 31.774C299.882 32.294 300.818 32.554 301.806 32.554C302.82 32.554 303.769 32.307 304.653 31.813C305.537 31.293 306.239 30.565 306.759 29.629C307.279 28.667 307.539 27.523 307.539 26.197ZM324.728 19.879V30.331C324.728 31.059 324.897 31.592 325.235 31.93C325.599 32.242 326.197 32.398 327.029 32.398H329.564V37H326.132C321.53 37 319.229 34.764 319.229 30.292V19.879H316.655V15.394H319.229V10.051H324.728V15.394H329.564V19.879H324.728ZM341.759 37.351C339.991 37.351 338.405 37.039 337.001 36.415C335.597 35.765 334.479 34.894 333.647 33.802C332.841 32.71 332.399 31.501 332.321 30.175H337.82C337.924 31.007 338.327 31.696 339.029 32.242C339.757 32.788 340.654 33.061 341.72 33.061C342.76 33.061 343.566 32.853 344.138 32.437C344.736 32.021 345.035 31.488 345.035 30.838C345.035 30.136 344.671 29.616 343.943 29.278C343.241 28.914 342.11 28.524 340.55 28.108C338.938 27.718 337.612 27.315 336.572 26.899C335.558 26.483 334.674 25.846 333.92 24.988C333.192 24.13 332.828 22.973 332.828 21.517C332.828 20.321 333.166 19.229 333.842 18.241C334.544 17.253 335.532 16.473 336.806 15.901C338.106 15.329 339.627 15.043 341.369 15.043C343.943 15.043 345.997 15.693 347.531 16.993C349.065 18.267 349.91 19.996 350.066 22.18H344.84C344.762 21.322 344.398 20.646 343.748 20.152C343.124 19.632 342.279 19.372 341.213 19.372C340.225 19.372 339.458 19.554 338.912 19.918C338.392 20.282 338.132 20.789 338.132 21.439C338.132 22.167 338.496 22.726 339.224 23.116C339.952 23.48 341.083 23.857 342.617 24.247C344.177 24.637 345.464 25.04 346.478 25.456C347.492 25.872 348.363 26.522 349.091 27.406C349.845 28.264 350.235 29.408 350.261 30.838C350.261 32.086 349.91 33.204 349.208 34.192C348.532 35.18 347.544 35.96 346.244 36.532C344.97 37.078 343.475 37.351 341.759 37.351ZM353.339 26.119C353.339 23.935 353.768 21.998 354.626 20.308C355.51 18.618 356.693 17.318 358.175 16.408C359.683 15.498 361.36 15.043 363.206 15.043C364.818 15.043 366.222 15.368 367.418 16.018C368.64 16.668 369.615 17.487 370.343 18.475V15.394H375.842V37H370.343V33.841C369.641 34.855 368.666 35.7 367.418 36.376C366.196 37.026 364.779 37.351 363.167 37.351C361.347 37.351 359.683 36.883 358.175 35.947C356.693 35.011 355.51 33.698 354.626 32.008C353.768 30.292 353.339 28.329 353.339 26.119ZM370.343 26.197C370.343 24.871 370.083 23.74 369.563 22.804C369.043 21.842 368.341 21.114 367.457 20.62C366.573 20.1 365.624 19.84 364.61 19.84C363.596 19.84 362.66 20.087 361.802 20.581C360.944 21.075 360.242 21.803 359.696 22.765C359.176 23.701 358.916 24.819 358.916 26.119C358.916 27.419 359.176 28.563 359.696 29.551C360.242 30.513 360.944 31.254 361.802 31.774C362.686 32.294 363.622 32.554 364.61 32.554C365.624 32.554 366.573 32.307 367.457 31.813C368.341 31.293 369.043 30.565 369.563 29.629C370.083 28.667 370.343 27.523 370.343 26.197ZM386.634 18.514C387.336 17.526 388.298 16.707 389.52 16.057C390.768 15.381 392.185 15.043 393.771 15.043C395.617 15.043 397.281 15.498 398.763 16.408C400.271 17.318 401.454 18.618 402.312 20.308C403.196 21.972 403.638 23.909 403.638 26.119C403.638 28.329 403.196 30.292 402.312 32.008C401.454 33.698 400.271 35.011 398.763 35.947C397.281 36.883 395.617 37.351 393.771 37.351C392.185 37.351 390.781 37.026 389.559 36.376C388.363 35.726 387.388 34.907 386.634 33.919V47.296H381.174V15.394H386.634V18.514ZM398.061 26.119C398.061 24.819 397.788 23.701 397.242 22.765C396.722 21.803 396.02 21.075 395.136 20.581C394.278 20.087 393.342 19.84 392.328 19.84C391.34 19.84 390.404 20.1 389.52 20.62C388.662 21.114 387.96 21.842 387.414 22.804C386.894 23.766 386.634 24.897 386.634 26.197C386.634 27.497 386.894 28.628 387.414 29.59C387.96 30.552 388.662 31.293 389.52 31.813C390.404 32.307 391.34 32.554 392.328 32.554C393.342 32.554 394.278 32.294 395.136 31.774C396.02 31.254 396.722 30.513 397.242 29.551C397.788 28.589 398.061 27.445 398.061 26.119ZM413.066 18.514C413.768 17.526 414.73 16.707 415.952 16.057C417.2 15.381 418.617 15.043 420.203 15.043C422.049 15.043 423.713 15.498 425.195 16.408C426.703 17.318 427.886 18.618 428.744 20.308C429.628 21.972 430.07 23.909 430.07 26.119C430.07 28.329 429.628 30.292 428.744 32.008C427.886 33.698 426.703 35.011 425.195 35.947C423.713 36.883 422.049 37.351 420.203 37.351C418.617 37.351 417.213 37.026 415.991 36.376C414.795 35.726 413.82 34.907 413.066 33.919V47.296H407.606V15.394H413.066V18.514ZM424.493 26.119C424.493 24.819 424.22 23.701 423.674 22.765C423.154 21.803 422.452 21.075 421.568 20.581C420.71 20.087 419.774 19.84 418.76 19.84C417.772 19.84 416.836 20.1 415.952 20.62C415.094 21.114 414.392 21.842 413.846 22.804C413.326 23.766 413.066 24.897 413.066 26.197C413.066 27.497 413.326 28.628 413.846 29.59C414.392 30.552 415.094 31.293 415.952 31.813C416.836 32.307 417.772 32.554 418.76 32.554C419.774 32.554 420.71 32.294 421.568 31.774C422.452 31.254 423.154 30.513 423.674 29.551C424.22 28.589 424.493 27.445 424.493 26.119Z" fill="white"/>
</svg>
