<svg width="47" height="47" viewBox="0 0 47 47" fill="none" xmlns="http://www.w3.org/2000/svg">
<path fill-rule="evenodd" clip-rule="evenodd" d="M6.85437 23.5C6.85437 14.3068 14.307 6.85417 23.5002 6.85417C32.6934 6.85417 40.146 14.3068 40.146 23.5C40.146 32.6932 32.6934 40.1458 23.5002 40.1458C20.2254 40.1458 17.1772 39.2023 14.6054 37.5728C14.1267 37.2696 13.5402 37.1886 12.9973 37.3505L7.35898 39.0333L9.48189 34.0658C9.73281 33.4787 9.68175 32.8062 9.34508 32.2637C7.76633 29.7197 6.85437 26.7193 6.85437 23.5ZM23.5002 2.9375C12.1439 2.9375 2.9377 12.1436 2.9377 23.5C2.9377 27.0996 3.86427 30.4879 5.49261 33.434L2.11609 41.3345C1.81759 42.0331 1.9499 42.8411 2.45556 43.4078C2.96122 43.9748 3.74904 44.198 4.4769 43.9806L13.2883 41.3512C16.2983 43.0765 19.7866 44.0625 23.5002 44.0625C34.8565 44.0625 44.0627 34.8564 44.0627 23.5C44.0627 12.1436 34.8565 2.9375 23.5002 2.9375ZM27.9896 27.7739L25.416 29.5867C24.2107 28.9001 22.878 27.9417 21.5412 26.6049C20.1516 25.2153 19.1214 23.7806 18.3617 22.4646L19.9973 21.0764C20.6992 20.4806 20.8913 19.4763 20.4589 18.6635L18.3749 14.7468C18.0943 14.2194 17.5883 13.8489 17.0008 13.7407C16.4132 13.6325 15.8084 13.7984 15.3583 14.1912L14.7405 14.7305C13.2546 16.0273 12.3759 18.1583 13.1042 20.3159C13.8593 22.5528 15.4707 26.0732 18.7718 29.3744C22.3234 32.926 25.931 34.3247 28.0408 34.8679C29.7406 35.3054 31.3492 34.7189 32.4826 33.7954L33.641 32.8514C34.1365 32.4478 34.4038 31.8276 34.3572 31.1902C34.3104 30.5527 33.9555 29.9782 33.4064 29.6509L30.1197 27.6926C29.4559 27.2972 28.6216 27.3289 27.9896 27.7739Z" fill="#CA8416"/>
</svg>
