<svg width="48" height="48" viewBox="0 0 48 48" fill="none" xmlns="http://www.w3.org/2000/svg">
<path d="M16 12.0077V10C16 7.79086 14.2091 6 12 6C9.79086 6 8 7.79086 8 10V12.0077M42 32V14.4C42 12.1598 42 11.0397 41.564 10.184C41.1806 9.43138 40.5686 8.81946 39.816 8.43598C38.9604 8 37.8402 8 35.6 8H24M6 32V26M9 18H15C15.9319 18 16.3978 18 16.7654 17.8478C17.2554 17.6448 17.6448 17.2554 17.8478 16.7654C18 16.3978 18 15.9319 18 15C18 14.0681 18 13.6022 17.8478 13.2346C17.6448 12.7446 17.2554 12.3552 16.7654 12.1522C16.3978 12 15.9319 12 15 12H9C8.06812 12 7.60218 12 7.23464 12.1522C6.74458 12.3552 6.35522 12.7446 6.15224 13.2346C6 13.6022 6 14.0681 6 15C6 15.9319 6 16.3978 6.15224 16.7654C6.35522 17.2554 6.74458 17.6448 7.23464 17.8478C7.60218 18 8.06812 18 9 18ZM44 32V33.6C44 35.8402 44 36.9604 43.564 37.816C43.1806 38.5686 42.5686 39.1806 41.816 39.564C40.9604 40 39.8402 40 37.6 40H10.4C8.1598 40 7.03968 40 6.18404 39.564C5.43138 39.1806 4.81946 38.5686 4.43598 37.816C4 36.9604 4 35.8402 4 33.6V32H16.6745C17.1637 32 17.4083 32 17.6385 32.0552C17.8425 32.1042 18.0376 32.185 18.2166 32.2948C18.4184 32.4184 18.5914 32.5914 18.9373 32.9372L19.0627 33.0628C19.4086 33.4086 19.5816 33.5816 19.7834 33.7052C19.9624 33.815 20.1574 33.8958 20.3616 33.9448C20.5918 34 20.8364 34 21.3254 34H26.6746C27.1636 34 27.4082 34 27.6384 33.9448C27.8426 33.8958 28.0376 33.815 28.2166 33.7052C28.4184 33.5816 28.5914 33.4086 28.9372 33.0628L29.0628 32.9372C29.4086 32.5914 29.5816 32.4184 29.7834 32.2948C29.9624 32.185 30.1574 32.1042 30.3616 32.0552C30.5918 32 30.8364 32 31.3254 32H44Z" stroke="#CA8416" stroke-width="3" stroke-linecap="round" stroke-linejoin="round"/>
</svg>
